<svg width="64" height="64" viewBox="0 0 64 64" fill="none" xmlns="http://www.w3.org/2000/svg">
  <defs>
    <linearGradient id="faviconBrandGradient" x1="16" y1="10" x2="48" y2="54" gradientUnits="userSpaceOnUse">
      <stop offset="0%" stop-color="#72E6D7" />
      <stop offset="100%" stop-color="#4FC5BE" />
    </linearGradient>
  </defs>
  <path
    d="M15 14.6C15 10.95 17.95 8 21.6 8H42.4C46.05 8 49 10.95 49 14.6V21.2C49 24.3 47.73 27.26 45.48 29.34L37.77 36.45C34.51 39.46 29.49 39.46 26.23 36.45L18.52 29.34C16.27 27.26 15 24.3 15 21.2V14.6Z"
    fill="url(#faviconBrandGradient)"
  />
  <path
    d="M15 49.4C15 53.05 17.95 56 21.6 56H42.4C46.05 56 49 53.05 49 49.4V42.8C49 39.7 47.73 36.74 45.48 34.66L37.77 27.55C34.51 24.54 29.49 24.54 26.23 27.55L18.52 34.66C16.27 36.74 15 39.7 15 42.8V49.4Z"
    fill="url(#faviconBrandGradient)"
    fill-opacity="0.42"
  />
  <circle cx="32" cy="32" r="5.6" fill="#F5FFFF" />
</svg>
